<?xml version="1.0" encoding="utf-8"?>
<!-- Generator: Adobe Illustrator 24.0.1, SVG Export Plug-In . SVG Version: 6.00 Build 0)  -->
<svg version="1.1" id="Icon_x5F_contour" xmlns="http://www.w3.org/2000/svg" xmlns:xlink="http://www.w3.org/1999/xlink" x="0px"
	 y="0px" viewBox="0 0 192 192" style="enable-background:new 0 0 192 192;" xml:space="preserve">
<path d="M96,16c-44.1123,0-80,35.8877-80,80s35.8877,80,80,80s80-35.8877,80-80S140.1123,16,96,16z M60.03516,158.33392
	C60.76465,137.72601,75.02844,124,96,124s35.23535,13.72601,35.96484,34.33392C121.37378,164.46851,109.09521,168,96,168
	S70.62622,164.46851,60.03516,158.33392z M76,92c0-11.02783,8.97217-20,20-20s20,8.97217,20,20s-8.97217,20-20,20
	S76,103.02783,76,92z M139.56976,153.27008c-2.35797-18.328-14.37915-31.74097-31.7298-35.90472
	C117.3764,112.89606,124,103.20935,124,92c0-15.43945-12.56055-28-28-28S68,76.56055,68,92
	c0,11.20935,6.6236,20.89606,16.16003,25.36536c-17.35071,4.1637-29.37183,17.57666-31.7298,35.90472
	C35.16748,140.1051,24,119.33624,24,96c0-39.70117,32.29883-72,72-72s72,32.29883,72,72
	C168,119.33624,156.83252,140.1051,139.56976,153.27008z"/>
<g>
</g>
<g>
</g>
<g>
</g>
<g>
</g>
<g>
</g>
<g>
</g>
<g>
</g>
<g>
</g>
<g>
</g>
<g>
</g>
<g>
</g>
<g>
</g>
<g>
</g>
<g>
</g>
<g>
</g>
</svg>
